<?xml version="1.0" standalone="no"?><!DOCTYPE svg PUBLIC "-//W3C//DTD SVG 1.1//EN" "http://www.w3.org/Graphics/SVG/1.1/DTD/svg11.dtd"><svg t="1769177245963" class="icon" viewBox="0 0 1024 1024" version="1.1" xmlns="http://www.w3.org/2000/svg" p-id="6708" xmlns:xlink="http://www.w3.org/1999/xlink" width="200" height="200"><path d="M284.586667 852.736a409.6 409.6 0 0 0 583.68-542.805333 756.309333 756.309333 0 0 1-583.68 542.805333z" fill="#EB3C99" p-id="6709"></path><path d="M762.112 187.733333A590.506667 590.506667 0 0 1 187.733333 643.328a594.005333 594.005333 0 0 1-64.853333-3.328 410.624 410.624 0 0 0 162.133333 213.333333 756.309333 756.309333 0 0 0 583.68-542.805333A413.525333 413.525333 0 0 0 762.112 187.733333z" fill="#F064BA" p-id="6710"></path><path d="M762.112 187.733333a409.002667 409.002667 0 0 0-128-66.986666 446.805333 446.805333 0 0 1-409.6 267.264 446.464 446.464 0 0 1-99.157333-11.178667A409.6 409.6 0 0 0 122.88 640a594.005333 594.005333 0 0 0 64.426667 3.498667A590.506667 590.506667 0 0 0 762.112 187.733333z" fill="#F374C7" p-id="6711"></path><path d="M125.354667 376.832a446.464 446.464 0 0 0 99.157333 11.178667 446.805333 446.805333 0 0 0 409.6-267.264 410.112 410.112 0 0 0-508.330667 256z" fill="#FFCFF1" p-id="6712"></path><path d="M688.896 309.845333A460.032 460.032 0 0 1 426.666667 294.144a1.621333 1.621333 0 0 0-1.962667 2.389333l74.837333 118.613334c51.2-22.784 110.506667-51.2 153.6-81.834667 11.861333-8.277333 24.064-15.530667 35.754667-23.466667z" fill="#FFFFFF" p-id="6713"></path><path d="M449.621333 337.066667l29.115734-16.810667 164.010666 284.074667-29.115733 16.810666z" fill="#FFFFFF" p-id="6714"></path><path d="M377.6 630.613333a134.4 99.328 0 1 0 268.8 0 134.4 99.328 0 1 0-268.8 0Z" fill="#FFFFFF" p-id="6715"></path></svg>