<?xml version="1.0" standalone="no"?><!DOCTYPE svg PUBLIC "-//W3C//DTD SVG 1.1//EN" "http://www.w3.org/Graphics/SVG/1.1/DTD/svg11.dtd"><svg t="1761290771183" class="icon" viewBox="0 0 1024 1024" version="1.1" xmlns="http://www.w3.org/2000/svg" p-id="1290" xmlns:xlink="http://www.w3.org/1999/xlink" width="200" height="200"><path d="M1004.65777778 512c0 272.04266667-220.61511111 492.65777778-492.65777778 492.65777778S19.34222222 784.04266667 19.34222222 512 239.95733333 19.34222222 512 19.34222222s492.65777778 220.61511111 492.65777778 492.65777778z" fill="#FEE457" p-id="1291"></path><path d="M512 1016.03555555c-68.03911111 0-134.03022222-13.312-196.15288889-39.59466666-60.07466667-25.37244445-113.89155555-61.78133333-160.19911111-107.97511111-46.30755555-46.30755555-82.60266667-100.23822222-107.97511111-160.19911111C21.27644445 646.03022222 7.96444445 580.03911111 7.96444445 512s13.312-134.03022222 39.59466666-196.15288889c25.37244445-60.07466667 61.78133333-113.89155555 107.97511111-160.19911111s100.23822222-82.60266667 160.19911111-107.97511111C377.96977778 21.27644445 443.96088889 7.96444445 512 7.96444445s134.03022222 13.312 196.15288889 39.59466666c60.07466667 25.37244445 113.89155555 61.78133333 160.19911111 107.97511111 46.30755555 46.30755555 82.60266667 100.23822222 107.97511111 160.19911111C1002.72355555 377.96977778 1016.03555555 443.96088889 1016.03555555 512s-13.312 134.03022222-39.59466666 196.15288889c-25.37244445 60.07466667-61.78133333 113.89155555-107.97511111 160.19911111-46.30755555 46.30755555-100.23822222 82.60266667-160.19911111 107.97511111C646.03022222 1002.72355555 580.03911111 1016.03555555 512 1016.03555555z m0-985.31555555C246.67022222 30.72 30.72 246.67022222 30.72 512s215.95022222 481.28 481.28 481.28 481.28-215.95022222 481.28-481.28S777.32977778 30.72 512 30.72z" fill="#42210B" p-id="1292"></path><path d="M332.57244445 968.704C149.16266667 896.91022222 19.34222222 720.78222222 19.34222222 512 19.34222222 239.95733333 239.95733333 19.34222222 512 19.34222222c163.38488889 0 308.224 81.80622222 397.88088889 204.34488889C854.24355555 201.95555555 793.71377778 187.73333333 730.45333333 187.73333333c-272.04266667 0-492.65777778 220.61511111-492.65777778 492.65777778 0 108.65777778 35.15733333 206.848 94.7768889 288.31288889z" fill="#F7C237" p-id="1293"></path><path d="M364.88533333 993.50755555l-36.40888888-14.22222222c-93.52533333-36.63644445-173.28355555-99.21422222-230.51377778-181.02044444C39.02577778 714.29688889 7.96444445 615.31022222 7.96444445 512c0-68.03911111 13.312-134.03022222 39.59466666-196.15288889 25.37244445-60.07466667 61.78133333-113.89155555 107.97511111-160.19911111 46.30755555-46.30755555 100.23822222-82.60266667 160.19911111-107.97511111C377.96977778 21.27644445 443.96088889 7.96444445 512 7.96444445c80.32711111 0 160.54044445 19.91111111 231.87911111 57.57155555 68.49422222 36.18133333 129.13777778 88.51911111 175.104 151.43822222l23.09688889 31.51644445-36.40888889-14.22222222C846.05155555 210.944 787.11466667 199.11111111 730.45333333 199.11111111c-265.32977778 0-481.28 215.95022222-481.28 481.28 0 101.376 31.97155555 198.76977778 92.61511112 281.6l23.09688888 31.51644444zM512 30.72C246.67022222 30.72 30.72 246.67022222 30.72 512c0 185.344 105.01688889 350.43555555 270.56355555 430.64888889C252.13155555 863.45955555 226.41777778 773.57511111 226.41777778 680.39111111c0-68.03911111 13.312-134.03022222 39.59466667-196.15288889 25.37244445-60.07466667 61.78133333-113.89155555 107.9751111-160.19911111 46.30755555-46.30755555 100.23822222-82.60266667 160.19911112-107.97511111C596.42311111 189.66755555 662.41422222 176.35555555 730.45333333 176.35555555c47.44533333 0 96.36977778 7.85066667 145.97688889 23.43822223C784.61155555 93.29777778 651.03644445 30.72 512 30.72z" fill="#42210B" p-id="1294"></path><path d="M370.91555555 357.60355555m-105.81333333 0a105.81333333 105.81333333 0 1 0 211.62666667 0 105.81333333 105.81333333 0 1 0-211.62666667 0Z" fill="#FCF4D4" p-id="1295"></path><path d="M370.91555555 474.79466667c-64.62577778 0-117.19111111-52.56533333-117.1911111-117.19111112s52.56533333-117.19111111 117.1911111-117.1911111 117.19111111 52.56533333 117.19111112 117.1911111-52.56533333 117.19111111-117.19111112 117.19111112z m0-211.62666667c-52.11022222 0-94.43555555 42.32533333-94.43555555 94.43555555s42.32533333 94.43555555 94.43555555 94.43555556 94.43555555-42.32533333 94.43555556-94.43555556-42.32533333-94.43555555-94.43555556-94.43555555z" fill="#42210B" p-id="1296"></path><path d="M654.79111111 200.02133333m-52.90666666 0a52.90666667 52.90666667 0 1 0 105.81333333 0 52.90666667 52.90666667 0 1 0-105.81333333 0Z" fill="#FBB03B" p-id="1297"></path><path d="M654.79111111 264.30577778c-35.49866667 0-64.28444445-28.78577778-64.28444444-64.28444445s28.78577778-64.28444445 64.28444444-64.28444444 64.28444445 28.78577778 64.28444444 64.28444444-28.78577778 64.28444445-64.28444444 64.28444445z m0-105.81333333c-22.86933333 0-41.52888889 18.65955555-41.52888889 41.52888888s18.65955555 41.52888889 41.52888889 41.52888889 41.52888889-18.65955555 41.52888889-41.52888889-18.65955555-41.52888889-41.52888889-41.52888888z" fill="#42210B" p-id="1298"></path><path d="M100.01306738 403.92688185a27.87555555 38.22933333 19.746 1 0 52.47292302 18.83556978 27.87555555 38.22933333 19.746 1 0-52.47292302-18.83556978Z" fill="#F7CF2B" p-id="1299"></path><path d="M120.60444445 461.93777778c-3.75466667 0-7.39555555-0.56888889-11.03644445-1.93422223-10.35377778-3.75466667-18.31822222-12.74311111-21.84533333-24.68977777-3.18577778-10.92266667-2.61688889-23.43822222 1.70666666-35.27111111 9.44355555-26.16888889 32.99555555-40.96 53.70311112-33.45066667 10.35377778 3.75466667 18.31822222 12.74311111 21.84533333 24.68977778 3.18577778 10.92266667 2.61688889 23.43822222-1.70666667 35.27111111-7.85066667 21.61777778-25.25866667 35.38488889-42.66666666 35.38488889z m11.60533333-74.41066667c-7.28177778 0-16.83911111 7.28177778-21.504 20.25244444-2.61688889 7.28177778-3.072 15.01866667-1.25155556 21.16266667 0.79644445 2.84444445 2.95822222 7.96444445 7.62311111 9.67111111 7.28177778 2.61688889 19.22844445-4.89244445 24.576-19.79733333 2.61688889-7.28177778 3.072-15.01866667 1.25155556-21.16266667-0.79644445-2.84444445-2.95822222-7.96444445-7.62311111-9.67111111-0.91022222-0.34133333-1.93422222-0.45511111-3.072-0.45511111z" fill="#42210B" p-id="1300"></path><path d="M115.03426787 664.68776846a40.50448384 60.8705024 1.117 1 0 80.99357355 1.57919687 40.50448384 60.8705024 1.117 1 0-80.99357355-1.57919687Z" fill="#F7CF2B" p-id="1301"></path><path d="M154.85155555 737.16622222h-0.79644444c-28.89955555-0.56888889-50.85866667-32.54044445-50.06222222-72.704 0.79644445-39.82222222 23.552-70.656 52.11022222-70.656h0.79644444c28.89955555 0.56888889 50.85866667 32.54044445 50.06222223 72.704-0.34133333 18.31822222-5.57511111 35.72622222-14.67733333 48.81066667-9.78488889 14.10844445-23.09688889 21.84533333-37.4328889 21.84533333z m1.36533334-121.62844444c-15.92888889 0-29.80977778 22.41422222-30.26488889 49.37955555-0.56888889 27.07911111 12.62933333 50.176 28.672 50.51733334 9.55733333 0.22755555 16.49777778-7.85066667 19.91111111-12.62933334 6.59911111-9.44355555 10.46755555-22.86933333 10.80888889-36.75022222 0.56888889-27.07911111-12.62933333-50.176-28.672-50.51733333h-0.45511111z" fill="#42210B" p-id="1302"></path><path d="M392.01829888 94.34551069a32.54044445 48.92444445 67.635 1 0 24.76363776 60.18541568 32.54044445 48.92444445 67.635 1 0-24.76363776-60.18541568Z" fill="#F7CF2B" p-id="1303"></path><path d="M391.168 168.61866667c-4.096 0-7.96444445-0.34133333-11.83288889-1.13777778-13.88088889-2.73066667-23.89333333-10.24-28.33066666-21.16266667-4.43733333-10.80888889-2.61688889-23.21066667 5.34755555-34.92977777 7.168-10.58133333 18.65955555-19.56977778 32.31288889-25.1448889 13.65333333-5.57511111 28.10311111-7.28177778 40.61866666-4.77866666 13.88088889 2.73066667 23.89333333 10.24 28.33066667 21.16266666 8.87466667 21.39022222-7.73688889 47.90044445-37.54666667 60.18844445-9.55733333 3.75466667-19.456 5.80266667-28.89955555 5.80266667z m26.39644445-70.88355556c-7.168 0-14.90488889 1.59288889-22.30044445 4.66488889-10.35377778 4.20977778-19.22844445 11.15022222-24.34844445 18.77333333-2.61688889 3.86844445-6.59911111 11.49155555-3.64088888 18.54577778 2.95822222 7.05422222 11.03644445 9.67111111 15.58755555 10.58133334 9.10222222 1.82044445 20.25244445 0.45511111 30.49244445-3.86844445 20.13866667-8.30577778 32.99555555-25.37244445 27.98933333-37.31911111-2.95822222-7.05422222-11.03644445-9.67111111-15.58755555-10.58133334-2.61688889-0.56888889-5.34755555-0.79644445-8.192-0.79644444z" fill="#42210B" p-id="1304"></path><path d="M468.30933333 789.73155555C431.33155555 821.02044445 377.74222222 819.65511111 342.47111111 788.48c2.50311111 3.98222222 5.23377778 7.85066667 8.41955556 11.60533333 34.36088889 40.73244445 95.232 45.85244445 135.85066666 11.49155556 40.73244445-34.36088889 45.85244445-95.232 11.49155556-135.85066667-3.072-3.75466667-6.48533333-7.05422222-10.01244444-10.24 24.68977778 39.936 17.06666667 93.07022222-19.91111112 124.24533333z" fill="#F7C237" p-id="1305"></path><path d="M373.19111111 289.10933333c-6.25777778 0-11.37777778-5.12-11.37777778-11.37777778v-24.80355555c0-6.25777778 5.12-11.37777778 11.37777778-11.37777778s11.37777778 5.12 11.37777778 11.37777778v24.80355555c0 6.25777778-5.12 11.37777778-11.37777778 11.37777778zM333.02755555 298.66666667c-3.98222222 0-7.73688889-2.048-9.89866666-5.68888889l-12.40177778-21.504c-3.18577778-5.46133333-1.25155555-12.40177778 4.20977778-15.58755556 5.46133333-3.18577778 12.40177778-1.25155555 15.58755556 4.20977778l12.40177777 21.504c3.18577778 5.46133333 1.25155555 12.40177778-4.20977777 15.58755555-1.82044445 1.024-3.75466667 1.47911111-5.6888889 1.47911112zM302.87644445 327.11111111c-1.93422222 0-3.86844445-0.45511111-5.6888889-1.47911111l-21.504-12.40177778c-5.46133333-3.18577778-7.28177778-10.12622222-4.20977777-15.58755555 3.18577778-5.46133333 10.12622222-7.28177778 15.58755555-4.20977778l21.504 12.40177778c5.46133333 3.18577778 7.28177778 10.12622222 4.20977778 15.58755555-2.16177778 3.64088889-5.91644445 5.68888889-9.89866666 5.68888889zM291.04355555 366.70577778H266.24c-6.25777778 0-11.37777778-5.12-11.37777778-11.37777778s5.12-11.37777778 11.37777778-11.37777778h24.80355555c6.25777778 0 11.37777778 5.12 11.37777778 11.37777778s-5.00622222 11.37777778-11.37777778 11.37777778zM279.09688889 419.27111111c-3.98222222 0-7.73688889-2.048-9.89866667-5.68888889-3.18577778-5.46133333-1.25155555-12.40177778 4.20977778-15.58755555l21.504-12.40177778c5.46133333-3.18577778 12.40177778-1.25155555 15.58755555 4.20977778 3.18577778 5.46133333 1.25155555 12.40177778-4.20977777 15.58755555l-21.504 12.40177778c-1.70666667 1.024-3.75466667 1.47911111-5.68888889 1.47911111zM316.64355555 458.41066667c-1.93422222 0-3.86844445-0.45511111-5.68888888-1.47911112-5.46133333-3.18577778-7.28177778-10.12622222-4.20977778-15.58755555l12.40177778-21.504c3.18577778-5.46133333 10.12622222-7.28177778 15.58755555-4.20977778 5.46133333 3.18577778 7.28177778 10.12622222 4.20977778 15.58755556L326.54222222 452.72177778c-2.16177778 3.64088889-6.03022222 5.68888889-9.89866667 5.68888889zM368.64 473.65688889c-6.25777778 0-11.37777778-5.12-11.37777778-11.37777778v-24.80355556c0-6.25777778 5.12-11.37777778 11.37777778-11.37777777s11.37777778 5.12 11.37777778 11.37777777v24.80355556c0 6.25777778-5.12 11.37777778-11.37777778 11.37777778zM421.31911111 460.68622222c-3.98222222 0-7.73688889-2.048-9.89866666-5.68888889L399.01866667 433.49333333c-3.18577778-5.46133333-1.25155555-12.40177778 4.20977778-15.58755555 5.46133333-3.18577778 12.40177778-1.25155555 15.58755555 4.20977777l12.40177778 21.504c3.18577778 5.46133333 1.25155555 12.40177778-4.20977778 15.58755556-1.82044445 1.024-3.75466667 1.47911111-5.68888889 1.47911111zM460.45866667 423.25333333c-1.93422222 0-3.86844445-0.45511111-5.68888889-1.47911111l-21.504-12.40177777c-5.46133333-3.18577778-7.28177778-10.12622222-4.20977778-15.58755556 3.18577778-5.46133333 10.12622222-7.28177778 15.58755555-4.20977778l21.504 12.40177778c5.46133333 3.18577778 7.28177778 10.12622222 4.20977778 15.58755556-2.16177778 3.64088889-6.03022222 5.68888889-9.89866666 5.68888888zM475.59111111 371.25688889h-24.80355556c-6.25777778 0-11.37777778-5.12-11.37777777-11.37777778s5.12-11.37777778 11.37777777-11.37777778H475.59111111c6.25777778 0 11.37777778 5.12 11.37777778 11.37777778s-5.12 11.37777778-11.37777778 11.37777778zM441.23022222 330.97955555c-3.98222222 0-7.73688889-2.048-9.89866667-5.68888888-3.18577778-5.46133333-1.25155555-12.40177778 4.20977778-15.58755556l21.504-12.40177778c5.46133333-3.18577778 12.40177778-1.25155555 15.58755556 4.20977778 3.18577778 5.46133333 1.25155555 12.40177778-4.20977778 15.58755556l-21.504 12.40177778c-1.82044445 1.024-3.75466667 1.47911111-5.68888889 1.4791111zM412.78577778 300.94222222c-1.93422222 0-3.86844445-0.45511111-5.68888889-1.47911111-5.46133333-3.18577778-7.28177778-10.12622222-4.20977778-15.58755556l12.40177778-21.504c3.18577778-5.46133333 10.12622222-7.28177778 15.58755556-4.20977777 5.46133333 3.18577778 7.28177778 10.12622222 4.20977777 15.58755555l-12.40177777 21.504c-2.16177778 3.64088889-5.91644445 5.68888889-9.89866667 5.68888889z" fill="#42210B" p-id="1306"></path></svg>